<svg xmlns="http://www.w3.org/2000/svg" viewBox="0 0 512 512" style="background-color:#FFC107">
  <path d="M112 368c-17.7 0-32 14.3-32 32s14.3 32 32 32 32-14.3 32-32-14.3-32-32-32zm288 0c-17.7 0-32 14.3-32 32s14.3 32 32 32 32-14.3 32-32-14.3-32-32-32zm66.8-210.3l-34.9-89.6C423.8 45.4 402.7 32 380 32H132c-22.7 0-43.8 13.4-51.9 36.1l-34.9 89.6C16.9 169.3 0 196.4 0 226v158c0 22.1 17.9 40 40 40h24c8.8 0 16-7.2 16-16v-24h352v24c0 8.8 7.2 16 16 16h24c22.1 0 40-17.9 40-40V226c0-29.6-16.9-56.7-45.2-68.3zM132 80h248l24.9 64H107.1L132 80zm332 272H48v-23.7c0-24.1 17.5-45.4 40.8-49.6l24.4-4.5c23-4.2 46.2 10.9 50.4 33.9.6 3.5 1 7.1 1 10.7 0 22.1 17.9 40 40 40h102.8c22.1 0 40-17.9 40-40 0-3.6.3-7.2 1-10.7 4.2-23 27.5-38.1 50.4-33.9l24.4 4.5c23.3 4.2 40.8 25.5 40.8 49.6V352z" fill="#333"/>
</svg>
